<?xml version="1.0" standalone="no"?>
<!DOCTYPE svg PUBLIC "-//W3C//DTD SVG 20010904//EN"
 "http://www.w3.org/TR/2001/REC-SVG-20010904/DTD/svg10.dtd">
<svg version="1.0" xmlns="http://www.w3.org/2000/svg"
 width="320.000000pt" height="320.000000pt" viewBox="0 0 320.000000 320.000000"
 preserveAspectRatio="xMidYMid meet">
<metadata>
Created by potrace 1.14, written by Peter Selinger 2001-2017
</metadata>
<g transform="translate(0.000000,320.000000) scale(0.100000,-0.100000)"
fill="#000000" stroke="none">
<path d="M1097 3193 c-4 -3 -7 -19 -7 -34 0 -31 6 -33 85 -43 132 -17 136 -18
129 -38 -6 -21 29 -57 57 -58 9 0 33 -13 54 -30 45 -36 45 -36 78 -10 16 13
41 20 69 21 23 0 36 3 28 6 -37 12 -80 34 -86 44 -9 15 48 2 104 -22 44 -20
57 -35 22 -26 -11 3 -20 1 -20 -4 0 -5 5 -9 11 -9 8 0 8 -5 -1 -15 -13 -16 -6
-85 9 -85 4 0 15 -18 24 -40 l15 -39 -137 -138 c-75 -76 -166 -170 -201 -209
-86 -94 -114 -113 -179 -120 -80 -9 -103 5 -147 89 -20 40 -40 74 -44 77 -4 3
-24 37 -44 77 l-36 72 55 58 c31 32 74 67 97 78 22 11 39 25 37 30 -7 19 -93
9 -149 -17 -88 -40 -121 -50 -220 -63 -120 -16 -105 -63 25 -80 69 -9 85 -14
85 -30 0 -8 6 -18 14 -22 7 -4 28 -37 46 -73 26 -51 30 -68 21 -82 -9 -14 -8
-18 3 -18 8 0 37 -45 65 -100 29 -55 61 -104 71 -110 27 -14 26 -75 -1 -138
-18 -40 -33 -56 -95 -95 -40 -26 -76 -47 -79 -47 -9 0 -45 40 -45 50 0 6 -4
10 -10 10 -5 0 -10 7 -10 15 0 8 -6 15 -13 15 -7 0 -21 11 -31 25 -10 13 -22
22 -26 20 -4 -3 -11 2 -14 11 -3 8 -10 12 -16 9 -5 -3 -10 -2 -10 3 0 25 -128
60 -206 56 -71 -3 -174 -38 -195 -67 -3 -5 -9 -7 -12 -5 -6 3 -80 -64 -113
-104 -12 -13 -34 -49 -50 -79 -16 -30 -32 -56 -35 -59 -4 -3 -10 -20 -14 -37
-3 -18 -10 -33 -14 -33 -4 0 -7 -8 -8 -17 -2 -23 -7 -45 -14 -58 -3 -5 -5 -25
-5 -42 1 -18 -2 -33 -6 -33 -15 0 -1 -275 18 -342 10 -38 22 -68 26 -68 4 0 5
-7 2 -15 -4 -8 -1 -15 5 -15 6 0 11 -6 11 -14 0 -16 29 -73 47 -93 7 -8 20
-27 30 -43 9 -17 23 -30 30 -30 7 0 13 -4 13 -10 0 -5 16 -20 35 -32 19 -13
39 -32 44 -43 5 -11 10 -14 10 -7 1 10 4 10 16 -2 8 -8 15 -17 15 -19 0 -6
-41 -1 -62 8 -10 4 -18 3 -18 -2 0 -5 6 -10 13 -11 6 0 27 -3 46 -6 20 -3 41
0 50 7 12 10 13 9 6 -3 -16 -26 -15 -47 1 -26 10 14 14 16 14 5 0 -9 3 -10 8
-3 4 7 15 8 27 3 11 -4 14 -8 6 -8 -8 -1 -12 -4 -8 -7 3 -3 12 -2 19 2 18 12
71 12 79 1 4 -5 15 -4 27 2 22 12 39 0 26 -20 -4 -8 0 -8 15 0 11 7 21 14 21
17 0 3 -6 2 -13 -2 -9 -6 -9 -5 0 8 7 8 10 18 6 21 -3 4 -1 7 6 7 6 0 11 -7 9
-16 -2 -10 5 -18 15 -19 9 -2 17 2 17 8 0 8 3 9 8 2 8 -12 82 -15 82 -4 0 7
-8 8 -77 10 -18 1 -33 4 -33 8 0 9 34 35 51 39 7 2 16 7 19 11 3 4 21 18 40
31 19 14 46 37 60 53 14 16 35 41 47 54 12 14 25 34 28 44 4 11 10 19 15 19 8
0 25 48 22 63 -1 4 1 7 6 7 11 0 34 58 28 69 -3 5 1 12 10 15 8 3 13 9 10 14
-2 4 2 34 9 67 8 32 11 63 8 68 -4 7 1 7 13 3 68 -28 132 -13 173 40 26 33 27
51 4 56 -11 2 2 10 30 18 26 8 47 18 47 22 0 4 11 8 24 8 51 0 59 60 10 74
l-31 9 37 66 c104 185 141 249 304 519 97 162 183 300 191 308 13 14 16 13 24
-8 5 -13 41 -99 80 -192 40 -93 70 -177 69 -186 -2 -9 8 -37 21 -62 l24 -45
-21 -31 c-12 -16 -22 -35 -22 -41 0 -6 -4 -11 -9 -11 -5 0 -15 -17 -21 -37 -7
-21 -16 -42 -21 -48 -5 -5 -9 -17 -9 -27 0 -10 -4 -18 -9 -18 -4 0 -8 -10 -7
-22 1 -13 -2 -26 -6 -29 -5 -3 -9 -23 -11 -45 -1 -21 -6 -42 -11 -45 -10 -7
-11 -228 -2 -297 3 -24 11 -62 17 -85 6 -23 12 -46 13 -52 1 -5 4 -14 7 -20 3
-5 11 -29 19 -53 7 -23 17 -42 22 -42 4 0 7 -3 6 -8 -4 -11 26 -72 34 -72 5 0
8 -6 8 -13 0 -7 13 -28 30 -47 16 -19 29 -38 30 -42 0 -14 34 -48 47 -48 7 0
13 -5 13 -12 0 -16 50 -59 61 -52 5 3 9 -1 9 -8 0 -13 81 -68 100 -68 6 0 10
-4 10 -10 0 -5 7 -10 16 -10 8 0 22 -6 29 -14 12 -12 12 -15 0 -20 -8 -3 -19
3 -24 12 -7 12 -10 13 -11 3 0 -10 -3 -11 -13 -2 -10 8 -14 7 -14 -3 0 -7 10
-13 21 -12 15 1 21 -5 19 -19 -1 -19 -1 -19 11 -2 7 9 18 17 25 17 6 0 11 5
11 12 0 6 6 3 14 -7 8 -11 11 -26 8 -35 -3 -8 5 -4 17 10 12 14 20 20 17 14
-3 -7 1 -15 10 -18 8 -3 13 -10 9 -15 -3 -5 -1 -12 4 -16 6 -3 8 3 6 15 -5 25
13 26 32 3 12 -15 14 -15 10 -2 -3 9 1 16 9 16 17 0 18 -18 2 -37 -11 -12 -10
-12 3 -2 9 6 19 9 23 5 4 -4 4 0 0 10 -5 13 -2 16 11 11 10 -4 21 -1 26 7 5 8
9 9 9 2 0 -6 13 -10 29 -9 27 2 29 0 19 -18 -11 -21 -11 -21 10 -2 22 19 59
15 46 -5 -4 -8 -3 -9 5 -5 6 4 9 12 6 17 -4 5 1 9 9 9 10 0 13 -6 10 -17 -5
-15 -4 -15 4 -3 6 8 8 18 5 24 -4 5 1 7 10 3 8 -3 18 0 20 7 6 14 -39 10 -59
-5 -6 -5 -11 -4 -11 4 0 8 5 14 11 14 24 0 170 64 209 92 49 34 147 126 147
138 0 5 8 16 18 25 30 29 42 47 42 63 0 9 7 18 15 21 8 4 15 14 15 24 0 11 4
22 10 25 6 3 10 14 10 24 0 10 7 24 15 31 9 7 14 19 11 26 -3 7 0 16 5 20 6 3
9 15 6 25 -3 10 -1 19 4 21 27 10 41 303 19 399 -24 103 -61 219 -71 219 -5 0
-9 6 -9 13 0 15 -20 54 -51 102 -10 17 -22 38 -25 47 -3 10 -15 20 -25 23 -11
4 -17 11 -14 16 4 5 -1 12 -9 15 -8 3 -18 14 -21 25 -4 10 -11 19 -16 19 -5 0
-21 12 -36 28 -68 67 -191 131 -305 158 -67 16 -233 9 -288 -13 -8 -4 -19 -5
-24 -4 -5 1 -13 -4 -17 -11 -4 -7 -10 -10 -11 -8 -2 3 -23 35 -47 72 -24 38
-48 65 -54 61 -5 -3 -7 -1 -4 4 4 6 -7 35 -23 66 -33 60 -70 159 -73 195 -1
12 -6 21 -13 18 -6 -2 -27 36 -48 87 -21 51 -46 109 -56 130 l-17 37 28 0 c27
0 28 -1 17 -31 -6 -16 -8 -32 -5 -36 3 -3 11 13 16 35 9 31 18 43 40 50 52 18
99 -10 65 -38 -22 -19 -44 -107 -43 -169 l2 -56 7 71 c9 84 16 110 41 145 18
26 59 33 88 15 7 -5 29 -9 49 -11 20 -1 45 -6 56 -10 16 -7 18 -5 11 26 -9 43
-13 49 -30 49 -8 0 -26 5 -42 12 -26 11 -73 15 -213 21 -30 1 -65 8 -77 15
-13 7 -66 15 -120 18 -58 4 -116 13 -144 24 -26 11 -76 26 -111 35 -34 9 -70
22 -78 30 -8 7 -51 15 -95 18 -44 4 -118 13 -165 22 -96 17 -104 18 -113 8z
m253 -113 c0 -5 -4 -10 -10 -10 -5 0 -10 5 -10 10 0 6 5 10 10 10 6 0 10 -4
10 -10z m60 -19 c0 -15 -16 -22 -34 -15 -25 9 -19 24 9 24 14 0 25 -4 25 -9z
m390 -101 c0 -5 -4 -10 -10 -10 -5 0 -10 5 -10 10 0 6 5 10 10 10 6 0 10 -4
10 -10z m119 -245 c0 -5 -6 1 -14 15 -8 14 -14 30 -14 35 0 6 6 -1 14 -15 8
-14 14 -29 14 -35z m18 -57 c-3 -8 -6 -5 -6 6 -1 11 2 17 5 13 3 -3 4 -12 1
-19z m-280 -20 c-8 -13 -21 -22 -27 -20 -8 2 -10 -3 -7 -12 4 -9 1 -15 -4 -13
-14 3 -80 -114 -74 -131 3 -8 0 -10 -7 -6 -8 5 -9 2 -5 -10 4 -9 3 -15 -1 -12
-10 6 -65 -91 -58 -103 3 -5 -2 -15 -12 -22 -15 -12 -16 -12 -7 1 6 9 2 7 -8
-4 -10 -10 -15 -26 -13 -33 4 -9 1 -11 -6 -7 -7 5 -9 2 -6 -8 4 -8 2 -21 -4
-29 -7 -11 -8 -9 -4 6 5 16 3 16 -14 -5 -17 -22 -24 -41 -22 -61 1 -3 -6 -6
-14 -6 -20 0 -48 99 -40 142 4 20 31 61 69 106 88 103 239 242 247 228 5 -7 9
-5 13 5 4 9 9 16 13 16 3 0 0 -10 -9 -22z m373 -179 c46 -107 55 -150 30 -134
-14 9 -40 -25 -40 -51 0 -13 -4 -24 -8 -24 -7 0 -142 308 -142 323 0 3 15 7
33 9 69 7 72 4 127 -123z m-450 51 c-6 -11 -13 -20 -16 -20 -2 0 0 9 6 20 6
11 13 20 16 20 2 0 0 -9 -6 -20z m614 -166 c39 -58 42 -71 15 -51 -14 10 -63
107 -55 107 2 0 20 -25 40 -56z m-64 -118 c0 -6 -12 -19 -25 -29 -29 -20 -33
-9 -15 38 9 23 13 25 25 15 8 -7 15 -18 15 -24z m-896 8 c9 -8 16 -21 17 -27
6 -58 4 -97 -3 -97 -4 0 -8 5 -8 10 0 6 -11 10 -23 10 -19 0 -26 8 -35 39 -19
61 -16 81 12 81 14 0 32 -7 40 -16z m-120 -30 c3 -8 2 -12 -4 -9 -6 3 -10 10
-10 16 0 14 7 11 14 -7z m30 -87 c9 -13 4 -23 -22 -49 l-32 -33 0 33 c0 63 29
89 54 49z m1456 -23 c25 -9 52 -23 61 -31 8 -7 19 -13 24 -13 16 0 112 -86
145 -129 42 -56 102 -175 104 -207 0 -13 4 -24 7 -24 10 0 26 -93 28 -169 2
-53 -1 -71 -11 -71 -10 0 -10 -2 1 -9 10 -6 11 -20 6 -52 -12 -69 -45 -169
-56 -169 -6 0 -8 -4 -4 -9 4 -8 -26 -74 -41 -90 -2 -3 -21 11 -42 30 l-37 34
33 -35 c17 -20 32 -40 32 -46 0 -17 -66 -75 -75 -67 -4 5 -5 3 -1 -4 6 -11
-37 -49 -64 -55 -8 -2 -21 -9 -28 -15 -19 -18 -117 -45 -150 -42 -15 2 -32 0
-39 -4 -15 -10 -32 21 -27 51 2 12 -1 22 -6 22 -6 0 -10 -16 -10 -35 0 -19 -4
-35 -8 -35 -28 0 -113 33 -121 48 -6 9 -11 12 -11 5 0 -15 -70 24 -70 40 0 6
-3 8 -6 4 -10 -9 -75 56 -70 69 3 7 0 11 -7 8 -18 -7 -60 54 -54 77 4 16 2 18
-7 9 -10 -8 -21 6 -46 62 -17 40 -33 84 -33 98 -1 14 -5 27 -9 31 -22 16 -31
280 -11 312 4 6 8 22 9 36 3 24 43 141 49 141 2 0 14 -28 28 -62 14 -35 33
-81 43 -103 10 -22 18 -42 19 -45 1 -3 9 -22 19 -43 56 -126 66 -151 66 -164
0 -17 77 -97 103 -106 11 -4 17 -1 17 8 0 19 10 19 36 0 12 -8 25 -11 29 -7 3
4 6 3 5 -3 -4 -18 0 -35 8 -34 32 5 51 -2 46 -18 -5 -15 -4 -16 5 -3 9 13 12
12 26 -5 14 -19 15 -19 8 -1 -5 16 -2 18 20 14 15 -3 24 -2 22 3 -3 4 8 10 24
14 16 3 35 13 41 21 7 7 15 12 19 10 4 -3 8 5 8 16 1 11 10 26 20 33 15 11 22
10 45 -6 17 -12 29 -16 33 -9 4 6 3 9 -2 8 -4 -1 -18 3 -30 10 -20 11 -21 18
-17 70 3 31 5 67 5 80 0 12 4 22 11 22 6 0 1 8 -11 19 -13 11 -19 25 -15 35 4
9 1 16 -6 16 -9 0 -7 8 6 23 10 12 12 16 4 10 -19 -18 -33 -16 -26 2 3 8 2 15
-3 15 -4 0 -20 11 -35 25 -15 13 -36 29 -47 35 -11 6 -18 14 -15 18 2 4 -4 8
-14 8 -10 0 -16 -4 -14 -8 3 -4 1 -8 -5 -8 -5 0 -15 8 -20 18 -6 9 -11 12 -11
6 0 -7 -13 -14 -29 -16 -28 -4 -30 -1 -62 76 -18 45 -50 119 -71 165 -42 93
-41 104 17 105 19 1 35 5 35 10 0 14 162 -1 210 -20z m-1380 -39 c-7 -9 -15
-13 -17 -11 -7 7 7 26 19 26 6 0 6 -6 -2 -15z m1028 -128 c26 -63 42 -117 42
-142 0 -50 -19 -120 -29 -109 -7 9 -49 107 -97 227 -12 31 -17 54 -11 50 8 -4
7 -1 -1 9 -11 14 -9 20 15 42 15 14 30 26 33 26 3 0 24 -46 48 -103z m-1752
71 c3 -4 12 -4 19 -2 33 13 172 -75 158 -99 -3 -7 -3 -9 2 -5 10 10 35 -10 35
-27 0 -18 -118 -98 -132 -89 -6 4 -8 3 -5 -3 8 -13 -37 -37 -57 -30 -10 4 -13
1 -9 -9 3 -9 0 -14 -8 -12 -8 2 -13 -3 -12 -9 2 -7 -16 -26 -40 -43 -45 -32
-52 -37 -80 -59 -15 -12 -21 -11 -45 10 l-27 24 20 -24 c18 -22 18 -24 2 -18
-11 4 -16 3 -12 -3 4 -6 -9 -17 -27 -25 -18 -8 -29 -14 -24 -15 5 0 3 -7 -4
-15 -14 -17 -7 -99 10 -120 5 -6 11 -30 12 -53 3 -41 3 -42 41 -40 24 1 43 -4
49 -13 7 -10 8 -7 4 12 -5 22 -2 27 17 31 40 8 48 0 32 -32 -8 -15 -11 -31 -7
-36 4 -5 0 -3 -8 3 -13 10 -16 8 -16 -7 0 -10 3 -17 7 -15 3 3 15 -4 26 -15
22 -20 16 -22 118 35 28 15 62 36 77 46 14 11 31 19 37 19 6 0 11 5 11 11 0 6
7 9 15 5 8 -3 15 -2 15 3 0 4 23 22 51 40 48 30 75 40 66 24 -3 -5 -8 -24 -11
-44 -6 -37 -12 -61 -26 -94 -30 -71 -43 -94 -51 -89 -5 3 -6 -1 -3 -9 7 -19
-82 -110 -133 -136 -24 -12 -63 -24 -88 -28 l-45 -6 -2 39 -1 39 -4 -37 c-4
-38 -22 -53 -24 -20 0 10 -3 12 -6 5 -8 -21 -36 -15 -89 21 -58 39 -129 129
-120 151 3 8 0 14 -6 12 -7 -1 -23 30 -37 68 -20 60 -24 88 -24 195 -1 109 3
134 26 201 31 90 77 171 94 165 7 -3 10 1 7 8 -3 8 13 28 38 47 52 42 82 58
122 65 16 3 32 7 34 9 5 5 30 0 38 -7z m654 -23 c-24 -26 -50 -33 -50 -14 0 5
4 8 9 5 4 -3 16 3 26 14 10 11 23 20 28 20 6 0 0 -11 -13 -25z m56 -96 c-44
-73 -100 -139 -117 -139 -18 0 -8 17 41 71 27 29 50 61 50 69 0 14 60 83 67
76 2 -1 -17 -36 -41 -77z m-446 -101 c0 -18 -72 -88 -90 -88 -8 0 -22 5 -30
10 -13 8 -12 11 5 24 11 8 23 12 27 10 5 -3 8 -1 8 4 0 10 58 52 73 52 4 0 7
-5 7 -12z m1573 -49 c14 -35 14 -35 -16 -52 l-30 -18 7 47 c3 26 6 54 6 62 0
22 15 4 33 -39z m162 -36 c-26 -18 -30 -9 -8 16 11 14 19 17 22 10 2 -7 -4
-18 -14 -26z m69 11 c9 -8 16 -19 16 -24 0 -12 -50 -41 -60 -35 -6 3 -10 1
-10 -4 0 -19 -17 -12 -23 9 -6 24 12 38 25 19 8 -11 9 -10 4 4 -13 41 18 61
48 31z m-1904 -34 c-19 -13 -30 -13 -30 0 0 6 10 10 23 10 18 0 19 -2 7 -10z
m141 -18 c10 -27 -7 -35 -86 -45 l-50 -7 25 21 c41 33 84 59 94 56 5 -2 13
-13 17 -25z m1834 18 c3 -5 -1 -10 -9 -10 -9 0 -16 5 -16 10 0 6 4 10 9 10 6
0 13 -4 16 -10z m-2125 -39 c0 -5 -7 -12 -16 -15 -14 -5 -15 -4 -4 9 14 17 20
19 20 6z m2129 -8 c24 -20 39 -97 22 -107 -12 -8 -73 33 -66 45 3 4 -6 10 -19
13 -32 8 -41 35 -19 52 25 19 57 17 82 -3z m-254 -14 c7 -20 0 -37 -10 -27 -3
3 -7 15 -10 27 -5 27 12 28 20 0z m-1875 -17 c0 -4 -9 -8 -19 -8 -11 0 -17 4
-15 8 3 4 12 8 20 8 8 0 14 -4 14 -8z m-180 -12 c0 -5 -5 -10 -11 -10 -5 0 -7
-4 -4 -10 3 -5 1 -10 -4 -10 -6 0 -11 -11 -11 -25 0 -14 5 -25 11 -25 8 0 8
-5 -1 -15 -7 -8 -19 -15 -26 -15 -8 0 -14 -6 -14 -12 0 -9 -4 -8 -10 2 -21 33
-11 77 23 104 34 28 47 32 47 16z m478 -84 c-2 -13 -10 -20 -20 -20 -10 1 -15
-2 -13 -7 3 -4 -16 -20 -42 -35 -27 -15 -88 -52 -136 -81 -48 -30 -93 -51 -99
-47 -6 4 -8 3 -5 -3 4 -6 1 -13 -7 -16 -9 -4 -15 4 -18 24 -3 16 -1 29 4 29 5
0 7 4 3 9 -8 13 12 24 28 14 32 -20 91 -1 114 36 9 14 19 18 30 14 17 -7 17
-6 1 11 -16 15 -16 19 -3 32 8 9 15 23 15 33 0 13 7 18 28 16 15 0 43 2 62 5
56 10 61 8 58 -14z m-186 -38 c-6 -6 -15 -3 -26 7 -22 22 -20 33 7 37 24 3 37
-26 19 -44z m2016 2 c-1 -3 2 -13 7 -24 5 -12 3 -21 -6 -27 -8 -5 -10 -9 -5
-9 5 0 3 -7 -4 -15 -7 -8 -16 -12 -21 -9 -5 3 -8 2 -7 -3 2 -4 0 -9 -4 -10
-20 -7 -28 -1 -28 18 0 13 4 18 12 13 7 -5 8 -3 2 7 -14 23 -16 59 -2 59 9 0
9 3 -2 10 -13 9 -13 10 1 10 8 0 21 -6 29 -12 8 -7 7 -4 -3 8 -9 11 -14 24
-10 28 7 6 43 -32 41 -44z m42 10 c0 -5 -2 -10 -4 -10 -3 0 -8 5 -11 10 -3 6
-1 10 4 10 6 0 11 -4 11 -10z m-2195 -21 c-10 -15 -25 -10 -19 6 4 8 10 12 15
9 5 -3 7 -10 4 -15z m85 -18 c0 -31 -16 -51 -42 -51 -27 0 -24 55 4 74 27 19
38 12 38 -23z m1805 18 c-3 -4 15 -6 40 -4 38 2 43 0 33 -12 -6 -8 -17 -12
-25 -9 -7 3 -13 1 -13 -3 0 -15 -35 -1 -47 18 -9 14 -8 18 3 18 7 0 11 -4 9
-8z m-2040 -9 c3 -5 1 -10 -4 -10 -6 0 -11 5 -11 10 0 6 2 10 4 10 3 0 8 -4
11 -10z m2179 -47 c20 -17 20 -17 7 0 -12 15 -12 17 3 11 18 -7 19 -14 7 -47
-13 -32 -42 -43 -58 -21 -7 9 -10 21 -6 27 3 6 1 7 -5 3 -15 -9 -15 -1 -2 25
13 24 27 24 54 2z m-68 -9 c-4 -9 -1 -23 5 -31 7 -7 9 -16 6 -19 -9 -10 -27
34 -21 50 3 9 8 16 11 16 3 0 2 -7 -1 -16z m-46 -4 c0 -5 -4 -10 -9 -10 -6 0
-13 5 -16 10 -3 6 1 10 9 10 9 0 16 -4 16 -10z m-2070 -4 c0 -2 -8 -10 -17
-17 -16 -13 -17 -12 -4 4 13 16 21 21 21 13z"/>
<path d="M2734 1968 l-19 -23 23 19 c12 11 22 21 22 23 0 8 -8 2 -26 -19z"/>
<path d="M2684 1908 l-19 -23 23 19 c21 18 27 26 19 26 -2 0 -12 -10 -23 -22z"/>
<path d="M2809 1873 c-13 -16 -12 -17 4 -4 16 13 21 21 13 21 -2 0 -10 -8 -17
-17z"/>
<path d="M2619 1833 c-13 -16 -12 -17 4 -4 16 13 21 21 13 21 -2 0 -10 -8 -17
-17z"/>
<path d="M2774 1828 l-19 -23 23 19 c12 11 22 21 22 23 0 8 -8 2 -26 -19z"/>
<path d="M2503 1809 c-2 -23 3 -25 10 -4 4 8 3 16 -1 19 -4 3 -9 -4 -9 -15z"/>
<path d="M2719 1683 c-13 -16 -12 -17 4 -4 16 13 21 21 13 21 -2 0 -10 -8 -17
-17z"/>
<path d="M2200 1410 c-8 -5 -12 -11 -10 -14 3 -2 14 2 24 10 22 15 10 19 -14
4z"/>
<path d="M2259 1353 c-13 -16 -12 -17 4 -4 9 7 17 15 17 17 0 8 -8 3 -21 -13z"/>
<path d="M2750 1346 c0 -2 8 -10 18 -17 15 -13 16 -12 3 4 -13 16 -21 21 -21
13z"/>
<path d="M2660 1316 c0 -2 8 -10 18 -17 15 -13 16 -12 3 4 -13 16 -21 21 -21
13z"/>
<path d="M2865 1250 c10 -11 20 -20 23 -20 3 0 -3 9 -13 20 -10 11 -20 20 -23
20 -3 0 3 -9 13 -20z"/>
<path d="M2610 1256 c0 -2 8 -10 18 -17 15 -13 16 -12 3 4 -13 16 -21 21 -21
13z"/>
<path d="M2727 1239 c7 -7 15 -10 18 -7 3 3 -2 9 -12 12 -14 6 -15 5 -6 -5z"/>
<path d="M2129 1213 c-13 -16 -12 -17 4 -4 16 13 21 21 13 21 -2 0 -10 -8 -17
-17z"/>
<path d="M2555 1190 c3 -5 8 -10 11 -10 2 0 4 5 4 10 0 6 -5 10 -11 10 -5 0
-7 -4 -4 -10z"/>
<path d="M2660 1186 c0 -2 8 -10 18 -17 15 -13 16 -12 3 4 -13 16 -21 21 -21
13z"/>
<path d="M2315 1160 c-3 -6 1 -7 9 -4 18 7 21 14 7 14 -6 0 -13 -4 -16 -10z"/>
<path d="M2573 1153 c0 -11 7 -20 14 -20 10 0 10 4 1 16 -7 9 -13 18 -15 20
-1 2 -1 -5 0 -16z"/>
<path d="M2179 1123 c-13 -16 -12 -17 4 -4 9 7 17 15 17 17 0 8 -8 3 -21 -13z"/>
<path d="M599 1803 c-13 -16 -12 -17 4 -4 9 7 17 15 17 17 0 8 -8 3 -21 -13z"/>
<path d="M511 1794 c0 -11 3 -14 6 -6 3 7 2 16 -1 19 -3 4 -6 -2 -5 -13z"/>
<path d="M357 1764 c-8 -8 30 -64 43 -64 5 0 -2 12 -15 26 -14 15 -22 30 -19
35 6 10 0 12 -9 3z"/>
<path d="M416 1693 c-6 -14 -5 -15 5 -6 7 7 10 15 7 18 -3 3 -9 -2 -12 -12z"/>
<path d="M396 1667 c3 -10 9 -15 12 -12 3 3 0 11 -7 18 -10 9 -11 8 -5 -6z"/>
<path d="M339 1203 c-13 -16 -12 -17 4 -4 9 7 17 15 17 17 0 8 -8 3 -21 -13z"/>
<path d="M533 1207 c0 -8 6 -14 14 -14 9 0 10 4 2 14 -6 7 -12 13 -14 13 -1 0
-2 -6 -2 -13z"/>
<path d="M2589 1598 c-11 -22 -11 -22 7 -7 10 9 26 19 34 22 10 4 8 6 -7 6
-13 1 -27 -8 -34 -21z"/>
<path d="M525 1440 c-3 -6 1 -7 9 -4 18 7 21 14 7 14 -6 0 -13 -4 -16 -10z"/>
<path d="M270 859 c0 -5 5 -7 10 -4 6 3 10 8 10 11 0 2 -4 4 -10 4 -5 0 -10
-5 -10 -11z"/>
<path d="M730 861 c0 -6 4 -13 10 -16 6 -3 7 1 4 9 -7 18 -14 21 -14 7z"/>
<path d="M446 843 c-6 -14 -5 -15 5 -6 7 7 10 15 7 18 -3 3 -9 -2 -12 -12z"/>
<path d="M293 809 c-2 -23 3 -25 10 -4 4 8 3 16 -1 19 -4 3 -9 -4 -9 -15z"/>
<path d="M490 820 c0 -5 5 -10 11 -10 5 0 7 5 4 10 -3 6 -8 10 -11 10 -2 0 -4
-4 -4 -10z"/>
<path d="M233 805 c0 -8 4 -12 9 -9 5 3 6 10 3 15 -9 13 -12 11 -12 -6z"/>
<path d="M430 799 c0 -5 5 -7 10 -4 6 3 10 8 10 11 0 2 -4 4 -10 4 -5 0 -10
-5 -10 -11z"/>
<path d="M536 778 c3 -5 10 -6 15 -3 13 9 11 12 -6 12 -8 0 -12 -4 -9 -9z"/>
<path d="M595 779 c-3 -4 2 -6 10 -5 21 3 28 13 10 13 -9 0 -18 -4 -20 -8z"/>
<path d="M2196 751 c-3 -5 1 -11 9 -14 9 -4 12 -1 8 9 -6 16 -10 17 -17 5z"/>
<path d="M2325 720 c6 -10 4 -12 -10 -6 -14 5 -16 4 -7 -7 7 -8 9 -17 5 -20
-3 -4 -3 -7 0 -7 3 0 11 9 17 19 7 14 7 22 -2 27 -7 5 -8 3 -3 -6z"/>
<path d="M2735 710 c3 -5 0 -10 -8 -10 -8 0 -17 -7 -21 -15 -5 -13 -2 -13 19
1 21 14 26 34 9 34 -3 0 -2 -4 1 -10z"/>
<path d="M2835 691 c-3 -5 -2 -12 3 -15 5 -3 9 1 9 9 0 17 -3 19 -12 6z"/>
<path d="M2274 678 c-4 -7 -4 -10 1 -6 4 4 15 2 24 -5 14 -11 14 -10 2 6 -16
20 -18 21 -27 5z"/>
<path d="M2785 680 c-3 -6 1 -7 9 -4 18 7 21 14 7 14 -6 0 -13 -4 -16 -10z"/>
<path d="M2387 659 c7 -7 15 -10 18 -7 3 3 -2 9 -12 12 -14 6 -15 5 -6 -5z"/>
<path d="M2603 658 c-11 -19 -12 -37 -3 -43 5 -3 7 3 5 12 -1 10 2 24 8 31 5
6 7 12 4 12 -3 0 -9 -6 -14 -12z"/>
<path d="M2226 638 c3 -4 9 -8 15 -8 5 0 9 4 9 8 0 5 -7 9 -15 9 -8 0 -12 -4
-9 -9z"/>
<path d="M2320 646 c0 -2 8 -10 18 -17 15 -13 16 -12 3 4 -13 16 -21 21 -21
13z"/>
<path d="M2633 632 c2 -12 6 -24 10 -28 3 -4 4 4 2 16 -6 30 -16 40 -12 12z"/>
<path d="M2275 611 c-3 -5 -2 -12 3 -15 5 -3 9 1 9 9 0 17 -3 19 -12 6z"/>
<path d="M2737 613 c-10 -9 -9 -23 1 -23 5 0 9 7 9 15 0 17 -1 18 -10 8z"/>
<path d="M2097 595 c-4 -8 -3 -16 1 -19 4 -3 9 4 9 15 2 23 -3 25 -10 4z"/>
<path d="M2230 602 c0 -5 7 -9 15 -9 8 0 12 4 9 9 -3 4 -9 8 -15 8 -5 0 -9 -4
-9 -8z"/>
<path d="M2333 591 c0 -11 5 -18 9 -15 4 3 5 11 1 19 -7 21 -12 19 -10 -4z"/>
<path d="M2526 598 c3 -5 10 -6 15 -3 13 9 11 12 -6 12 -8 0 -12 -4 -9 -9z"/>
<path d="M2175 581 c-3 -5 -2 -12 3 -15 5 -3 9 1 9 9 0 17 -3 19 -12 6z"/>
<path d="M2370 579 c0 -5 5 -7 10 -4 6 3 10 8 10 11 0 2 -4 4 -10 4 -5 0 -10
-5 -10 -11z"/>
<path d="M2736 542 c-3 -5 1 -9 9 -9 8 0 12 4 9 9 -3 4 -7 8 -9 8 -2 0 -6 -4
-9 -8z"/>
<path d="M2650 520 c0 -5 5 -10 11 -10 5 0 7 5 4 10 -3 6 -8 10 -11 10 -2 0
-4 -4 -4 -10z"/>
<path d="M2722 498 c-7 -7 -12 -17 -12 -22 0 -6 5 -3 11 7 6 9 15 14 21 11 7
-4 8 -2 4 4 -9 15 -9 15 -24 0z"/>
<path d="M2810 500 c0 -5 5 -10 11 -10 5 0 7 5 4 10 -3 6 -8 10 -11 10 -2 0
-4 -4 -4 -10z"/>
<path d="M2850 499 c0 -5 5 -7 10 -4 6 3 10 8 10 11 0 2 -4 4 -10 4 -5 0 -10
-5 -10 -11z"/>
<path d="M2870 361 c0 -6 4 -13 10 -16 6 -3 7 1 4 9 -7 18 -14 21 -14 7z"/>
</g>
</svg>
